<svg width="16" height="16" viewBox="0 0 16 16" fill="none" xmlns="http://www.w3.org/2000/svg">
<path d="M6.14395 8.65064C6.14395 8.22327 6.45858 7.87327 6.85795 7.87327C7.25658 7.87327 7.57931 8.22253 7.57121 8.65064C7.57121 9.07653 7.25658 9.428 6.85795 9.428C6.46595 9.428 6.14395 9.07653 6.14395 8.65064Z" fill="white"/>
<path d="M8.69931 8.65064C8.69931 8.22327 9.01395 7.87327 9.41331 7.87327C9.81194 7.87327 10.1258 8.22253 10.1266 8.65064C10.1266 9.07653 9.81194 9.428 9.41331 9.428C9.02131 9.428 8.69931 9.07653 8.69931 8.65064Z" fill="white"/>
<path fill-rule="evenodd" clip-rule="evenodd" d="M3.43464 2H12.8154C13.0043 2.00048 13.1912 2.03816 13.3655 2.11089C13.5398 2.18362 13.6981 2.28997 13.8313 2.42388C13.9646 2.55778 14.0701 2.71661 14.1419 2.8913C14.2138 3.06599 14.2505 3.25312 14.25 3.442V16L12.7439 14.6693L11.8973 13.8853L11.0005 13.0519L11.3726 14.348H3.43464C2.644 14.348 2 13.704 2 12.906V3.442C1.99952 3.25312 2.03624 3.06599 2.10808 2.8913C2.17991 2.71661 2.28545 2.55778 2.41867 2.42388C2.55189 2.28997 2.71018 2.18362 2.8845 2.11089C3.05882 2.03816 3.24575 2.00048 3.43464 2ZM9.65137 10.5739C9.86064 10.8414 10.1126 11.142 10.1126 11.142C11.6338 11.0935 12.2342 10.1121 12.2541 10.0796C12.2541 10.0796 12.2545 10.079 12.2541 10.0796C12.2541 7.82556 11.2466 5.99811 11.2466 5.99811C10.2394 5.24137 9.28 5.26274 9.28 5.26274L9.182 5.37474C10.372 5.73874 10.9254 6.26337 10.9254 6.26337C9.85265 5.67247 8.61847 5.4418 7.40474 5.60537C7.37022 5.60537 7.34019 5.61035 7.30727 5.6158C7.30013 5.61698 7.29286 5.61819 7.28537 5.61937C7.04 5.64074 6.44537 5.73211 5.69674 6.06074C5.43811 6.17937 5.28337 6.26337 5.28337 6.26337C5.28337 6.26337 5.86474 5.71074 7.12474 5.346L7.05474 5.262C7.05474 5.262 6.09611 5.24063 5.08811 5.99737C5.08811 5.99737 4.08011 7.824 4.08011 10.078C4.08011 10.078 4.66737 11.0926 6.214 11.142C6.214 11.142 6.47337 10.8259 6.68337 10.5606C5.794 10.2946 5.458 9.73463 5.458 9.73463C5.458 9.73463 5.528 9.78326 5.654 9.85253C5.66191 9.86185 5.6717 9.86938 5.68274 9.87463C5.6924 9.88118 5.70205 9.88596 5.71178 9.89077C5.72284 9.89625 5.734 9.90177 5.74537 9.91C5.90979 10.0008 6.08043 10.0798 6.256 10.1465C6.58892 10.2785 6.93324 10.3796 7.28464 10.4486C8.23562 10.6312 9.21935 10.5292 10.1126 10.1554C10.358 10.064 10.6306 9.92989 10.918 9.74126C10.918 9.74126 10.568 10.3145 9.65137 10.5739Z" fill="white"/>
</svg>
