<svg width="40" height="40" viewBox="0 0 40 40" fill="none" xmlns="http://www.w3.org/2000/svg">
<path fill-rule="evenodd" clip-rule="evenodd" d="M14.6847 8.60997C14.2653 8.19061 13.5854 8.19061 13.166 8.60997L8.60998 13.166C8.19061 13.5854 8.19061 14.2653 8.60998 14.6847L25.3154 31.39C25.7347 31.8094 26.4147 31.8094 26.834 31.39L31.39 26.834C31.8094 26.4146 31.8094 25.7347 31.39 25.3153L14.6847 8.60997ZM5.57263 10.1286C3.47579 12.2255 3.47579 15.6251 5.57263 17.722L22.278 34.4274C24.3749 36.5242 27.7745 36.5242 29.8714 34.4274L34.4274 29.8714C36.5242 27.7745 36.5242 24.3749 34.4274 22.278L17.722 5.57263C15.6252 3.47579 12.2255 3.47579 10.1286 5.57263L5.57263 10.1286Z" fill="url(#paint0_linear_217_408)"/>
<path d="M31.39 14.6847C31.8094 14.2653 31.8094 13.5854 31.39 13.166L26.834 8.60997C26.4147 8.19061 25.7347 8.19061 25.3154 8.60997L23.0452 10.8801L20.0079 7.84275L22.278 5.57263C24.3749 3.47579 27.7745 3.47579 29.8714 5.57263L34.4274 10.1286C36.5242 12.2255 36.5242 15.6251 34.4274 17.722L23.0294 29.1199L19.9921 26.0826L31.39 14.6847Z" fill="url(#paint1_linear_217_408)"/>
<path d="M16.9547 29.1199L14.6847 31.39C14.2653 31.8094 13.5854 31.8094 13.166 31.39L8.60998 26.834C8.19061 26.4146 8.19061 25.7347 8.60998 25.3153L20.0079 13.9174L16.9706 10.8801L5.57263 22.278C3.47579 24.3749 3.47579 27.7745 5.57263 29.8714L10.1286 34.4274C12.2255 36.5242 15.6252 36.5242 17.722 34.4274L19.9921 32.1573L16.9547 29.1199Z" fill="url(#paint2_linear_217_408)"/>
<path d="M20 32.1757L16.1256 29.9754L16.9626 29.1383L20 32.1757Z" fill="url(#paint3_radial_217_408)" fill-opacity="0.4" style="mix-blend-mode:multiply"/>
<path d="M20 13.9516L16.1476 11.7293L16.9626 10.9143L20 13.9516Z" fill="url(#paint4_radial_217_408)" fill-opacity="0.4" style="mix-blend-mode:multiply"/>
<path d="M23.0373 10.9143L23.9006 10.051L20 7.87695L23.0373 10.9143Z" fill="url(#paint5_radial_217_408)" fill-opacity="0.4" style="mix-blend-mode:multiply"/>
<path d="M23.8845 28.2912L20 26.101L23.0373 29.1383L23.8845 28.2912Z" fill="url(#paint6_radial_217_408)" fill-opacity="0.4" style="mix-blend-mode:multiply"/>
<path d="M7.85059 20.0001L10.0509 16.1257L10.8879 16.9627L7.85059 20.0001Z" fill="url(#paint7_radial_217_408)" fill-opacity="0.4" style="mix-blend-mode:multiply"/>
<path d="M26.0746 20.0001L28.297 16.1477L29.112 16.9627L26.0746 20.0001Z" fill="url(#paint8_radial_217_408)" fill-opacity="0.4" style="mix-blend-mode:multiply"/>
<path d="M29.112 23.0374L29.9753 23.9007L32.1493 20.0001L29.112 23.0374Z" fill="url(#paint9_radial_217_408)" fill-opacity="0.4" style="mix-blend-mode:multiply"/>
<path d="M11.7351 23.8846L13.9253 20L10.8879 23.0374L11.7351 23.8846Z" fill="url(#paint10_radial_217_408)" fill-opacity="0.4" style="mix-blend-mode:multiply"/>
<defs>
<linearGradient id="paint0_linear_217_408" x1="10.5714" y1="10.8571" x2="29.1429" y2="28.8572" gradientUnits="userSpaceOnUse">
<stop stop-color="#13ADC7"/>
<stop offset="0.479167" stop-color="#4685D9"/>
<stop offset="1" stop-color="#945DD6"/>
</linearGradient>
<linearGradient id="paint1_linear_217_408" x1="28.2857" y1="11.1429" x2="10" y2="28.8571" gradientUnits="userSpaceOnUse">
<stop stop-color="#F46737"/>
<stop offset="0.5" stop-color="#D94D81"/>
<stop offset="1" stop-color="#945DD6"/>
</linearGradient>
<linearGradient id="paint2_linear_217_408" x1="28.2857" y1="11.1429" x2="10" y2="28.8571" gradientUnits="userSpaceOnUse">
<stop stop-color="#F46737"/>
<stop offset="0.5" stop-color="#D94D81"/>
<stop offset="1" stop-color="#945DD6"/>
</linearGradient>
<radialGradient id="paint3_radial_217_408" cx="0" cy="0" r="1" gradientUnits="userSpaceOnUse" gradientTransform="translate(20 20.0001) rotate(90) scale(14.2857)">
<stop offset="0.137737" stop-color="#0E131F" stop-opacity="0"/>
<stop offset="0.486973" stop-color="#0E131F" stop-opacity="0.48"/>
<stop offset="0.883198" stop-color="#0E131F" stop-opacity="0"/>
</radialGradient>
<radialGradient id="paint4_radial_217_408" cx="0" cy="0" r="1" gradientUnits="userSpaceOnUse" gradientTransform="translate(20 20.0001) rotate(90) scale(14.2857)">
<stop offset="0.137737" stop-color="#0E131F" stop-opacity="0"/>
<stop offset="0.486973" stop-color="#0E131F" stop-opacity="0.48"/>
<stop offset="0.883198" stop-color="#0E131F" stop-opacity="0"/>
</radialGradient>
<radialGradient id="paint5_radial_217_408" cx="0" cy="0" r="1" gradientUnits="userSpaceOnUse" gradientTransform="translate(20 20.0001) rotate(90) scale(14.2857)">
<stop offset="0.137737" stop-color="#0E131F" stop-opacity="0"/>
<stop offset="0.486973" stop-color="#0E131F" stop-opacity="0.48"/>
<stop offset="0.883198" stop-color="#0E131F" stop-opacity="0"/>
</radialGradient>
<radialGradient id="paint6_radial_217_408" cx="0" cy="0" r="1" gradientUnits="userSpaceOnUse" gradientTransform="translate(20 20.0001) rotate(90) scale(14.2857)">
<stop offset="0.137737" stop-color="#0E131F" stop-opacity="0"/>
<stop offset="0.486973" stop-color="#0E131F" stop-opacity="0.48"/>
<stop offset="0.883198" stop-color="#0E131F" stop-opacity="0"/>
</radialGradient>
<radialGradient id="paint7_radial_217_408" cx="0" cy="0" r="1" gradientUnits="userSpaceOnUse" gradientTransform="translate(20 20.0001) rotate(90) scale(14.2857)">
<stop offset="0.137737" stop-color="#0E131F" stop-opacity="0"/>
<stop offset="0.486973" stop-color="#0E131F" stop-opacity="0.48"/>
<stop offset="0.883198" stop-color="#0E131F" stop-opacity="0"/>
</radialGradient>
<radialGradient id="paint8_radial_217_408" cx="0" cy="0" r="1" gradientUnits="userSpaceOnUse" gradientTransform="translate(20 20.0001) rotate(90) scale(14.2857)">
<stop offset="0.137737" stop-color="#0E131F" stop-opacity="0"/>
<stop offset="0.486973" stop-color="#0E131F" stop-opacity="0.48"/>
<stop offset="0.883198" stop-color="#0E131F" stop-opacity="0"/>
</radialGradient>
<radialGradient id="paint9_radial_217_408" cx="0" cy="0" r="1" gradientUnits="userSpaceOnUse" gradientTransform="translate(20 20.0001) rotate(90) scale(14.2857)">
<stop offset="0.137737" stop-color="#0E131F" stop-opacity="0"/>
<stop offset="0.486973" stop-color="#0E131F" stop-opacity="0.48"/>
<stop offset="0.883198" stop-color="#0E131F" stop-opacity="0"/>
</radialGradient>
<radialGradient id="paint10_radial_217_408" cx="0" cy="0" r="1" gradientUnits="userSpaceOnUse" gradientTransform="translate(20 20.0001) rotate(90) scale(14.2857)">
<stop offset="0.137737" stop-color="#0E131F" stop-opacity="0"/>
<stop offset="0.486973" stop-color="#0E131F" stop-opacity="0.48"/>
<stop offset="0.883198" stop-color="#0E131F" stop-opacity="0"/>
</radialGradient>
</defs>
</svg>
