<svg width="16" height="16" viewBox="0 0 16 16" fill="none" xmlns="http://www.w3.org/2000/svg">
<path d="M3.90991 13H1.21473V4.32057H3.90991V13ZM2.56087 3.13661C1.69904 3.13661 1 2.42276 1 1.56091C1 1.14693 1.16445 0.749905 1.45717 0.457179C1.74989 0.164452 2.1469 0 2.56087 0C2.97484 0 3.37185 0.164452 3.66457 0.457179C3.95729 0.749905 4.12174 1.14693 4.12174 1.56091C4.12174 2.42276 3.42241 3.13661 2.56087 3.13661ZM13.9971 13H11.3077V8.77491C11.3077 7.76796 11.2874 6.47664 9.90645 6.47664C8.50518 6.47664 8.29045 7.57064 8.29045 8.70236V13H5.59817V4.32057H8.18308V5.50452H8.2208C8.58062 4.82259 9.45958 4.10293 10.7709 4.10293C13.4986 4.10293 14 5.89917 14 8.23226V13H13.9971Z" fill="white"/>
</svg>
