<svg width="41" height="38" viewBox="0 0 41 38" fill="none" xmlns="http://www.w3.org/2000/svg">
<path d="M32.6666 7.20124C32.0764 5.03598 29.3829 4.27211 27.7335 5.80222L21.1158 11.9414C20.4585 12.5512 19.4388 12.5512 18.7814 11.9414L12.1637 5.80222C10.5144 4.27212 7.8209 5.03598 7.23065 7.20124L4.45227 17.3935C2.93112 22.9737 5.33609 28.8783 10.333 31.8316C12.5945 33.1682 15.1578 33.9104 17.7818 33.9923C17.8552 33.9946 17.9157 33.9358 17.9157 33.8627C17.9157 33.816 17.9408 33.7728 17.9816 33.7497L20.8161 32.1385C20.8788 32.1028 20.9461 32.0758 21.0151 32.0546C22.3479 31.6443 23.2637 30.4165 23.2637 29.0202C23.2637 28.8705 23.1277 28.7571 22.9788 28.7791C22.4663 28.8546 21.9471 28.8929 21.4254 28.8929H18.2693C16.3991 28.8929 14.5634 28.3914 12.9555 27.4411C9.94064 25.6593 8.48963 22.0968 9.4074 18.7301L10.8857 13.3071C11.0543 12.6884 11.8239 12.4702 12.2951 12.9074L15.2798 15.6762C17.9094 18.1156 21.9879 18.1156 24.6174 15.6762L27.6021 12.9074C28.0734 12.4702 28.843 12.6884 29.0116 13.3071L30.4379 18.5395C30.5258 18.8617 30.5923 19.1856 30.6383 19.5096C30.6906 19.8777 30.9507 20.1861 31.3019 20.3132C32.2395 20.6527 33.0679 21.2185 33.7201 21.9442C34.3074 22.5975 35.7388 22.5248 35.8092 21.6512C35.9271 20.186 35.7966 18.6834 35.3931 17.2029L32.6666 7.20124Z" fill="url(#paint0_linear_1_22)"/>
<path d="M24.9751 25.9139C24.9751 24.1559 26.6421 22.5092 28.8256 22.5092C30.4724 22.5092 31.8205 23.8103 31.8205 25.7011C31.8205 27.5919 30.4724 28.893 28.8256 28.893C27.4078 28.893 26.2585 30.0362 26.2585 31.4465C26.2585 32.8567 27.4078 34 28.8256 34C33.5585 34 36.9546 30.1564 36.9546 25.7011C36.9546 21.2457 33.5585 17.4022 28.8256 17.4022C24.3272 17.4022 19.841 20.844 19.841 25.9139V27.6162C19.841 27.6187 19.841 27.6213 19.841 27.6238L19.841 30.5954C19.841 32.1084 18.8488 33.3909 17.4762 33.8342C17.3801 33.8653 17.3867 34 17.4878 34H18.5575C22.1018 34 24.9751 31.1419 24.9751 27.6162V25.9139Z" fill="url(#paint1_linear_1_22)"/>
<defs>
<linearGradient id="paint0_linear_1_22" x1="17.06" y1="31.2269" x2="9.42255" y2="18.0005" gradientUnits="userSpaceOnUse">
<stop stop-color="#7E51C2"/>
<stop offset="0.176285" stop-color="#945DD6"/>
<stop offset="1" stop-color="#13ADC7"/>
</linearGradient>
<linearGradient id="paint1_linear_1_22" x1="27.3192" y1="22.5092" x2="25.377" y2="30.5816" gradientUnits="userSpaceOnUse">
<stop stop-color="#F46837"/>
<stop offset="1" stop-color="#DD5236"/>
</linearGradient>
</defs>
</svg>
