<svg width="16" height="16" viewBox="0 0 16 16" fill="none" xmlns="http://www.w3.org/2000/svg">
<path d="M13.4582 5.03616C13.4677 5.16941 13.4677 5.30268 13.4677 5.43592C13.4677 9.5 10.3744 14.1828 4.72083 14.1828C2.97906 14.1828 1.36105 13.6783 0 12.8027C0.247472 12.8312 0.485393 12.8408 0.742386 12.8408C2.17955 12.8408 3.50254 12.3554 4.55902 11.5273C3.20749 11.4988 2.07487 10.6136 1.68464 9.39532C1.87501 9.42386 2.06535 9.4429 2.26524 9.4429C2.54125 9.4429 2.81729 9.40481 3.07425 9.33822C1.66562 9.05266 0.609114 7.81536 0.609114 6.32107V6.28301C1.01836 6.51144 1.49429 6.65421 1.9987 6.67322C1.17065 6.12118 0.628157 5.17893 0.628157 4.11293C0.628157 3.54187 0.780413 3.01839 1.04693 2.56154C2.56026 4.42702 4.83503 5.64528 7.38577 5.77855C7.33819 5.55012 7.30963 5.3122 7.30963 5.07425C7.30963 3.38006 8.6802 2 10.3839 2C11.269 2 12.0685 2.37119 12.6301 2.97081C13.3249 2.83757 13.9911 2.58058 14.5812 2.22843C14.3528 2.94228 13.8674 3.5419 13.2297 3.92259C13.8484 3.85599 14.448 3.68464 15 3.44671C14.5813 4.05583 14.0578 4.59832 13.4582 5.03616Z" fill="white"/>
</svg>
