<svg width="16" height="16" viewBox="0 0 16 16" fill="none" xmlns="http://www.w3.org/2000/svg">
<path d="M15.6657 3.98027C15.4817 3.20079 14.9395 2.5869 14.2511 2.37857C13.0033 2 8 2 8 2C8 2 2.99669 2 1.7489 2.37857C1.06052 2.58693 0.518349 3.20079 0.334336 3.98027C0 5.39312 0 8.3409 0 8.3409C0 8.3409 0 11.2887 0.334336 12.7015C0.518349 13.481 1.06052 14.0693 1.7489 14.2777C2.99669 14.6562 8 14.6562 8 14.6562C8 14.6562 13.0033 14.6562 14.2511 14.2777C14.9395 14.0693 15.4817 13.481 15.6657 12.7015C16 11.2887 16 8.3409 16 8.3409C16 8.3409 16 5.39312 15.6657 3.98027ZM6.36363 11.0173V5.66454L10.5454 8.34097L6.36363 11.0173Z" fill="white"/>
</svg>
