<?xml version="1.0" standalone="no"?>
<!DOCTYPE svg PUBLIC "-//W3C//DTD SVG 20010904//EN"
 "http://www.w3.org/TR/2001/REC-SVG-20010904/DTD/svg10.dtd">
<svg version="1.0" xmlns="http://www.w3.org/2000/svg"
 width="512.000000pt" height="512.000000pt" viewBox="0 0 512.000000 512.000000"
 preserveAspectRatio="xMidYMid meet">
<metadata>
Created by potrace 1.14, written by Peter Selinger 2001-2017
</metadata>
<g transform="translate(0.000000,512.000000) scale(0.100000,-0.100000)"
fill="#000000" stroke="none">
<path d="M1200 4442 c-53 -8 -147 -61 -191 -107 -75 -76 -94 -125 -174 -455
-12 -52 -53 -212 -90 -355 -37 -143 -68 -267 -70 -275 -2 -8 -27 -107 -55
-220 -28 -113 -53 -212 -55 -220 -47 -187 -60 -298 -60 -495 0 -154 9 -258 30
-355 3 -14 7 -34 9 -46 19 -101 100 -322 159 -432 179 -342 430 -586 772 -752
97 -47 302 -128 325 -128 3 0 39 -7 80 -16 41 -9 86 -19 100 -22 69 -13 160
-19 305 -19 177 1 238 12 355 68 221 105 384 309 451 564 20 76 22 98 30 448
6 251 203 447 460 459 219 11 386 -169 390 -417 2 -131 -38 -243 -118 -328
-67 -72 -138 -102 -267 -114 -178 -16 -295 -143 -302 -327 -6 -152 64 -271
196 -332 51 -24 63 -26 170 -21 169 6 310 50 454 139 78 49 95 62 175 139 50
48 137 159 169 216 38 65 50 91 75 151 126 305 119 674 -18 975 -25 55 -28 72
-30 200 -5 234 -24 330 -211 1050 -3 11 -7 31 -10 44 -3 14 -14 57 -25 97 -11
40 -22 81 -24 91 -26 132 -143 559 -163 598 -45 82 -130 157 -212 183 -92 30
-209 18 -289 -30 -20 -11 -235 -219 -478 -462 -260 -259 -460 -450 -484 -463
-46 -25 -93 -29 -154 -12 -34 9 -109 80 -491 461 -248 248 -469 461 -490 474
-65 40 -164 58 -244 46z m307 -1040 c7 -4 115 -109 240 -233 237 -234 277
-267 393 -325 118 -58 207 -78 350 -77 143 0 234 20 353 77 108 51 160 95 408
341 213 212 228 225 263 225 39 0 81 -22 96 -49 9 -17 150 -568 150 -587 0 -7
-17 -8 -47 -5 -119 15 -278 0 -402 -35 -347 -100 -630 -358 -755 -687 -66
-175 -78 -265 -79 -589 l0 -228 -41 -1 c-211 -4 -310 3 -432 31 -144 34 -278
92 -408 178 -76 50 -195 165 -241 233 -16 24 -36 50 -43 58 -22 23 -99 193
-121 266 -38 127 -50 214 -46 345 2 69 6 141 9 160 9 58 195 792 212 838 10
25 26 48 42 57 30 16 80 19 99 7z"/>
</g>
</svg>
